<svg width="23" height="23" viewBox="0 0 23 23" fill="none" xmlns="http://www.w3.org/2000/svg">
<circle cx="11.5" cy="11.5" r="11.5" fill="#E47911"/>
<path d="M4 5.5C4 5.36739 4.05268 5.24021 4.14645 5.14645C4.24022 5.05268 4.3674 5 4.5 5H6.00002C6.11155 5.00003 6.21987 5.03735 6.30775 5.10602C6.39563 5.1747 6.45803 5.27078 6.48502 5.379L6.89003 7H18.5001C18.5761 7.00002 18.651 7.01734 18.7193 7.05065C18.7875 7.08396 18.8473 7.13238 18.8941 7.19224C18.9408 7.2521 18.9733 7.32182 18.9891 7.39611C19.0049 7.4704 19.0035 7.54731 18.9851 7.621L17.4851 13.621C17.4581 13.7292 17.3957 13.8253 17.3079 13.894C17.22 13.9626 17.1117 14 17.0001 14H8.00004C7.8885 14 7.78018 13.9626 7.6923 13.894C7.60442 13.8253 7.54202 13.7292 7.51503 13.621L5.61001 6H4.5C4.3674 6 4.24022 5.94732 4.14645 5.85355C4.05268 5.75979 4 5.63261 4 5.5ZM7.14003 8L7.64003 10H9.00005V8H7.14003ZM10.0001 8V10H12.0001V8H10.0001ZM13.0001 8V10H15.0001V8H13.0001ZM16.0001 8V10H17.3601L17.8601 8H16.0001ZM17.1101 11H16.0001V13H16.6101L17.1101 11ZM15.0001 11H13.0001V13H15.0001V11ZM12.0001 11H10.0001V13H12.0001V11ZM9.00005 11H7.89004L8.39004 13H9.00005V11ZM9.00005 16C8.73483 16 8.48047 16.1054 8.29293 16.2929C8.10539 16.4804 8.00004 16.7348 8.00004 17C8.00004 17.2652 8.10539 17.5196 8.29293 17.7071C8.48047 17.8946 8.73483 18 9.00005 18C9.26526 18 9.51962 17.8946 9.70716 17.7071C9.8947 17.5196 10.0001 17.2652 10.0001 17C10.0001 16.7348 9.8947 16.4804 9.70716 16.2929C9.51962 16.1054 9.26526 16 9.00005 16ZM7.00003 17C7.00003 16.4696 7.21074 15.9609 7.58582 15.5858C7.9609 15.2107 8.46961 15 9.00005 15C9.53048 15 10.0392 15.2107 10.4143 15.5858C10.7893 15.9609 11.0001 16.4696 11.0001 17C11.0001 17.5304 10.7893 18.0391 10.4143 18.4142C10.0392 18.7893 9.53048 19 9.00005 19C8.46961 19 7.9609 18.7893 7.58582 18.4142C7.21074 18.0391 7.00003 17.5304 7.00003 17ZM16.0001 16C15.7349 16 15.4805 16.1054 15.293 16.2929C15.1055 16.4804 15.0001 16.7348 15.0001 17C15.0001 17.2652 15.1055 17.5196 15.293 17.7071C15.4805 17.8946 15.7349 18 16.0001 18C16.2653 18 16.5197 17.8946 16.7072 17.7071C16.8948 17.5196 17.0001 17.2652 17.0001 17C17.0001 16.7348 16.8948 16.4804 16.7072 16.2929C16.5197 16.1054 16.2653 16 16.0001 16ZM14.0001 17C14.0001 16.4696 14.2108 15.9609 14.5859 15.5858C14.961 15.2107 15.4697 15 16.0001 15C16.5305 15 17.0393 15.2107 17.4143 15.5858C17.7894 15.9609 18.0001 16.4696 18.0001 17C18.0001 17.5304 17.7894 18.0391 17.4143 18.4142C17.0393 18.7893 16.5305 19 16.0001 19C15.4697 19 14.961 18.7893 14.5859 18.4142C14.2108 18.0391 14.0001 17.5304 14.0001 17Z" fill="black"/>
</svg>
